<svg xmlns="http://www.w3.org/2000/svg" viewBox="0 0 900 560" role="img" aria-label="Lot inventory aging">
  <rect width="900" height="560" rx="14" fill="#fafafa" stroke="#d4d4d8"/>
  <rect width="900" height="48" rx="14" fill="#18181b"/>
  <text x="20" y="30" fill="#fafafa" font-family="system-ui,sans-serif" font-size="15" font-weight="700">Lot inventory aging</text>
  <text x="720" y="30" fill="#a1a1aa" font-family="system-ui,sans-serif" font-size="12">scrubbed export</text>
  <text x="24" y="72" fill="#52525b" font-family="system-ui,sans-serif" font-size="13">Used + CPO units · days-on-lot and gross (scrubbed)</text>
  <rect x="24" y="78" width="852" height="420" rx="8" fill="#ffffff" stroke="#e4e4e7"/>
  <rect x="24" y="88" width="126" height="28" fill="#27272a" stroke="#3f3f46"/>
  <text x="32" y="106" fill="#fde047" font-family="system-ui,sans-serif" font-size="13" font-weight="600">Stock #</text>
  <rect x="154" y="88" width="126" height="28" fill="#27272a" stroke="#3f3f46"/>
  <text x="162" y="106" fill="#fde047" font-family="system-ui,sans-serif" font-size="13" font-weight="600">Year/Make</text>
  <rect x="284" y="88" width="126" height="28" fill="#27272a" stroke="#3f3f46"/>
  <text x="292" y="106" fill="#fde047" font-family="system-ui,sans-serif" font-size="13" font-weight="600">Days</text>
  <rect x="414" y="88" width="126" height="28" fill="#27272a" stroke="#3f3f46"/>
  <text x="422" y="106" fill="#fde047" font-family="system-ui,sans-serif" font-size="13" font-weight="600">Cost</text>
  <rect x="544" y="88" width="126" height="28" fill="#27272a" stroke="#3f3f46"/>
  <text x="552" y="106" fill="#fde047" font-family="system-ui,sans-serif" font-size="13" font-weight="600">Ask</text>
  <rect x="674" y="88" width="126" height="28" fill="#27272a" stroke="#3f3f46"/>
  <text x="682" y="106" fill="#fde047" font-family="system-ui,sans-serif" font-size="13" font-weight="600">Gross</text>
  <rect x="24" y="120" width="126" height="28" fill="#18181b" stroke="#27272a"/>
  <text x="32" y="139" fill="#e4e4e7" font-family="system-ui,sans-serif" font-size="12">A-1042</text>
  <rect x="154" y="120" width="126" height="28" fill="#18181b" stroke="#27272a"/>
  <text x="162" y="139" fill="#e4e4e7" font-family="system-ui,sans-serif" font-size="12">2021 SUV</text>
  <rect x="284" y="120" width="126" height="28" fill="#18181b" stroke="#27272a"/>
  <text x="292" y="139" fill="#e4e4e7" font-family="system-ui,sans-serif" font-size="12">34</text>
  <rect x="414" y="120" width="126" height="28" fill="#18181b" stroke="#27272a"/>
  <text x="422" y="139" fill="#e4e4e7" font-family="system-ui,sans-serif" font-size="12">$24.1k</text>
  <rect x="544" y="120" width="126" height="28" fill="#18181b" stroke="#27272a"/>
  <text x="552" y="139" fill="#e4e4e7" font-family="system-ui,sans-serif" font-size="12">$27.8k</text>
  <rect x="674" y="120" width="126" height="28" fill="#18181b" stroke="#27272a"/>
  <text x="682" y="139" fill="#e4e4e7" font-family="system-ui,sans-serif" font-size="12">$3.7k</text>
  <rect x="24" y="150" width="126" height="28" fill="#0f0f12" stroke="#27272a"/>
  <text x="32" y="169" fill="#e4e4e7" font-family="system-ui,sans-serif" font-size="12">A-1108</text>
  <rect x="154" y="150" width="126" height="28" fill="#0f0f12" stroke="#27272a"/>
  <text x="162" y="169" fill="#e4e4e7" font-family="system-ui,sans-serif" font-size="12">2019 Sedan</text>
  <rect x="284" y="150" width="126" height="28" fill="#0f0f12" stroke="#27272a"/>
  <text x="292" y="169" fill="#e4e4e7" font-family="system-ui,sans-serif" font-size="12">52</text>
  <rect x="414" y="150" width="126" height="28" fill="#0f0f12" stroke="#27272a"/>
  <text x="422" y="169" fill="#e4e4e7" font-family="system-ui,sans-serif" font-size="12">$11.2k</text>
  <rect x="544" y="150" width="126" height="28" fill="#0f0f12" stroke="#27272a"/>
  <text x="552" y="169" fill="#e4e4e7" font-family="system-ui,sans-serif" font-size="12">$13.4k</text>
  <rect x="674" y="150" width="126" height="28" fill="#0f0f12" stroke="#27272a"/>
  <text x="682" y="169" fill="#e4e4e7" font-family="system-ui,sans-serif" font-size="12">$2.2k</text>
  <rect x="24" y="180" width="126" height="28" fill="#18181b" stroke="#27272a"/>
  <text x="32" y="199" fill="#e4e4e7" font-family="system-ui,sans-serif" font-size="12">A-1189</text>
  <rect x="154" y="180" width="126" height="28" fill="#18181b" stroke="#27272a"/>
  <text x="162" y="199" fill="#e4e4e7" font-family="system-ui,sans-serif" font-size="12">2022 Truck</text>
  <rect x="284" y="180" width="126" height="28" fill="#18181b" stroke="#27272a"/>
  <text x="292" y="199" fill="#e4e4e7" font-family="system-ui,sans-serif" font-size="12">19</text>
  <rect x="414" y="180" width="126" height="28" fill="#18181b" stroke="#27272a"/>
  <text x="422" y="199" fill="#e4e4e7" font-family="system-ui,sans-serif" font-size="12">$31.5k</text>
  <rect x="544" y="180" width="126" height="28" fill="#18181b" stroke="#27272a"/>
  <text x="552" y="199" fill="#e4e4e7" font-family="system-ui,sans-serif" font-size="12">$35.9k</text>
  <rect x="674" y="180" width="126" height="28" fill="#18181b" stroke="#27272a"/>
  <text x="682" y="199" fill="#e4e4e7" font-family="system-ui,sans-serif" font-size="12">$4.4k</text>
  <rect x="24" y="210" width="126" height="28" fill="#0f0f12" stroke="#27272a"/>
  <text x="32" y="229" fill="#e4e4e7" font-family="system-ui,sans-serif" font-size="12">A-1203</text>
  <rect x="154" y="210" width="126" height="28" fill="#0f0f12" stroke="#27272a"/>
  <text x="162" y="229" fill="#e4e4e7" font-family="system-ui,sans-serif" font-size="12">2020 CUV</text>
  <rect x="284" y="210" width="126" height="28" fill="#0f0f12" stroke="#27272a"/>
  <text x="292" y="229" fill="#e4e4e7" font-family="system-ui,sans-serif" font-size="12">41</text>
  <rect x="414" y="210" width="126" height="28" fill="#0f0f12" stroke="#27272a"/>
  <text x="422" y="229" fill="#e4e4e7" font-family="system-ui,sans-serif" font-size="12">$16.8k</text>
  <rect x="544" y="210" width="126" height="28" fill="#0f0f12" stroke="#27272a"/>
  <text x="552" y="229" fill="#e4e4e7" font-family="system-ui,sans-serif" font-size="12">$19.2k</text>
  <rect x="674" y="210" width="126" height="28" fill="#0f0f12" stroke="#27272a"/>
  <text x="682" y="229" fill="#e4e4e7" font-family="system-ui,sans-serif" font-size="12">$2.4k</text>
  <rect x="24" y="508" width="852" height="40" rx="6" fill="#f4f4f5" stroke="#3b82f6" stroke-width="1"/>
  <text x="36" y="534" fill="#18181b" font-family="ui-monospace,monospace" font-size="12">Source: https://api.demo/automotive/inventory/kz-lot-2025q2</text>
</svg>
