<svg xmlns="http://www.w3.org/2000/svg" viewBox="0 0 900 560" role="img" aria-label="Evidence export">
  <rect width="900" height="560" rx="14" fill="#fafafa" stroke="#d4d4d8"/>
  <rect width="900" height="48" rx="14" fill="#18181b"/>
  <text x="20" y="30" fill="#fafafa" font-family="system-ui,sans-serif" font-size="15" font-weight="700">Evidence export</text>
  <text x="720" y="30" fill="#a1a1aa" font-family="system-ui,sans-serif" font-size="12">scrubbed export</text>
  <text x="24" y="72" fill="#52525b" font-family="system-ui,sans-serif" font-size="13">Trace-linked scrubbed document</text>
  <rect x="24" y="78" width="852" height="420" rx="8" fill="#ffffff" stroke="#e4e4e7"/>
  <rect x="24" y="88" width="126" height="28" fill="#27272a" stroke="#3f3f46"/>
  <text x="32" y="106" fill="#fde047" font-family="system-ui,sans-serif" font-size="13" font-weight="600">Field</text>
  <rect x="154" y="88" width="126" height="28" fill="#27272a" stroke="#3f3f46"/>
  <text x="162" y="106" fill="#fde047" font-family="system-ui,sans-serif" font-size="13" font-weight="600">Value</text>
  <rect x="24" y="120" width="126" height="28" fill="#18181b" stroke="#27272a"/>
  <text x="32" y="139" fill="#e4e4e7" font-family="system-ui,sans-serif" font-size="12">claim_id</text>
  <rect x="154" y="120" width="126" height="28" fill="#18181b" stroke="#27272a"/>
  <text x="162" y="139" fill="#e4e4e7" font-family="system-ui,sans-serif" font-size="12">EB-DEMO-01</text>
  <rect x="24" y="150" width="126" height="28" fill="#0f0f12" stroke="#27272a"/>
  <text x="32" y="169" fill="#e4e4e7" font-family="system-ui,sans-serif" font-size="12">status</text>
  <rect x="154" y="150" width="126" height="28" fill="#0f0f12" stroke="#27272a"/>
  <text x="162" y="169" fill="#e4e4e7" font-family="system-ui,sans-serif" font-size="12">verified</text>
  <rect x="24" y="180" width="126" height="28" fill="#18181b" stroke="#27272a"/>
  <text x="32" y="199" fill="#e4e4e7" font-family="system-ui,sans-serif" font-size="12">mode</text>
  <rect x="154" y="180" width="126" height="28" fill="#18181b" stroke="#27272a"/>
  <text x="162" y="199" fill="#e4e4e7" font-family="system-ui,sans-serif" font-size="12">scrubbed</text>
  <rect x="24" y="508" width="852" height="40" rx="6" fill="#f4f4f5" stroke="#22d3ee" stroke-width="1"/>
  <text x="36" y="534" fill="#18181b" font-family="ui-monospace,monospace" font-size="12">Source: https://research.demo/evidence/default</text>
</svg>
