<svg xmlns="http://www.w3.org/2000/svg" viewBox="0 0 320 400" role="img" aria-label="Job seeker portrait">
  <defs>
    <linearGradient id="bg" x1="0" y1="0" x2="1" y2="1">
      <stop offset="0%" stop-color="#1e3a5f"/>
      <stop offset="100%" stop-color="#09090b"/>
    </linearGradient>
  </defs>
  <rect width="320" height="400" fill="url(#bg)"/>
  <ellipse cx="160" cy="355" rx="110" ry="28" fill="#000" opacity="0.35"/>
  <path d="M98 342c18-52 106-52 124 0v58H98z" fill="#1d4ed8"/>
  <path d="M112 178c0-46 38-74 48-74s48 28 48 74v44H112z" fill="#8d5524"/>
  <path d="M96 172c12-48 54-78 64-78s52 30 64 78c-16 8-112 8-128 0z" fill="#1a1208"/>
  <path d="M118 202c12 16 72 16 84 0 6 20 6 36 0 52H118c-6-16-6-32 0-52z" fill="#6b4423"/>
  <ellipse cx="138" cy="210" rx="8" ry="10" fill="#0f172a"/>
  <ellipse cx="182" cy="210" rx="8" ry="10" fill="#0f172a"/>
  <path d="M152 236c10 7 18 7 28 0" stroke="#422006" stroke-width="3" fill="none" stroke-linecap="round"/>
  <rect x="118" y="318" width="84" height="52" rx="6" fill="#0f172a" stroke="#38bdf8" stroke-width="2"/>
  <text x="160" y="350" text-anchor="middle" fill="#7dd3fc" font-family="system-ui,sans-serif" font-size="11">SMS</text>
  <text x="160" y="385" text-anchor="middle" fill="#93c5fd" font-family="system-ui,sans-serif" font-size="13" font-weight="600">Jordan · job seeker</text>
</svg>
